<svg version="1.1" id="Layer_1" xmlns="http://www.w3.org/2000/svg" xmlns:xlink="http://www.w3.org/1999/xlink" x="0px" y="0px"
	 width="100%" viewBox="0 0 1366 768" enable-background="new 0 0 1366 768" xml:space="preserve">
<path fill="#000000" opacity="1.000000" stroke="none" 
	d="
M652.000000,1.000000 
	C890.290588,1.000000 1128.581177,1.000000 1366.935913,1.000000 
	C1366.935913,256.911377 1366.935913,512.822754 1366.935913,769.000000 
	C1087.972046,769.000000 808.943970,769.000000 529.544312,768.607666 
	C529.902954,763.799011 530.646912,759.384949 531.361267,754.966125 
	C535.569458,728.936035 539.787476,702.907471 543.969421,676.873169 
	C547.782898,653.132812 551.533020,629.382263 555.351074,605.642639 
	C559.195618,581.738403 563.101868,557.844177 566.958313,533.941833 
	C570.840027,509.882782 574.698303,485.820007 578.558594,461.757538 
	C582.367615,438.014374 586.171692,414.270386 589.968140,390.525208 
	C593.764587,366.779572 597.533447,343.029480 601.342651,319.285919 
	C605.203857,295.217651 609.098755,271.154816 612.980774,247.089890 
	C616.835693,223.193130 620.705078,199.298706 624.545837,175.399689 
	C628.703796,149.527924 632.820557,123.649536 636.984070,97.778679 
	C640.514709,75.840988 644.152405,53.920303 647.610901,31.971329 
	C649.233704,21.672722 650.546631,11.325301 652.000000,1.000000 
z"/>
<path fill="#D7D7D7" opacity="1.000000" stroke="none" 
	d="
M651.531372,1.000000 
	C650.546631,11.325301 649.233704,21.672722 647.610901,31.971329 
	C644.152405,53.920303 640.514709,75.840988 636.984070,97.778679 
	C632.820557,123.649536 628.703796,149.527924 624.545837,175.399689 
	C620.705078,199.298706 616.835693,223.193130 612.980774,247.089890 
	C609.098755,271.154816 605.203857,295.217651 601.342651,319.285919 
	C597.533447,343.029480 593.764587,366.779572 589.968140,390.525208 
	C586.171692,414.270386 582.367615,438.014374 578.558594,461.757538 
	C574.698303,485.820007 570.840027,509.882782 566.958313,533.941833 
	C563.101868,557.844177 559.195618,581.738403 555.351074,605.642639 
	C551.533020,629.382263 547.782898,653.132812 543.969421,676.873169 
	C539.787476,702.907471 535.569458,728.936035 531.361267,754.966125 
	C530.646912,759.384949 529.902954,763.799011 529.086365,768.607666 
	C353.039551,769.000000 177.079071,769.000000 1.059308,769.000000 
	C1.059308,513.097046 1.059308,257.194092 1.059308,1.000000 
	C217.687469,1.000000 434.375092,1.000000 651.531372,1.000000 
z"/>
</svg>